<svg width="183" height="55" viewBox="0 0 183 55" fill="none" xmlns="http://www.w3.org/2000/svg">
<g clip-path="url(#clip0_22_576)">
<path d="M76.4351 23.3817C75.9921 22.0648 74.8746 21.1009 72.6827 21.1009C69.455 21.1009 68.1058 23.2692 68.1058 25.4687C68.1058 27.6681 69.455 29.8382 72.6827 29.8382C75.0222 29.8382 76.3169 28.5057 76.5191 26.8358H79.0926C78.8814 29.5821 76.3306 31.4769 72.6827 31.4769C68.1694 31.4769 65.4709 28.7462 65.4709 25.4687C65.4709 22.1911 68.1694 19.4622 72.6827 19.4622C76.0762 19.4777 78.7542 20.9071 79.0699 23.3817H76.4351ZM80.6531 27.0434C80.6531 24.5065 82.6565 22.6739 86.1567 22.6739C89.657 22.6739 91.6581 24.5065 91.6581 27.0434C91.6581 29.5803 89.6547 31.4285 86.1567 31.4285C82.6587 31.4285 80.6531 29.5976 80.6531 27.0434ZM89.2549 27.0434C89.2549 25.614 88.3055 24.1206 86.1567 24.1206C84.0079 24.1206 83.0562 25.614 83.0562 27.0434C83.0562 28.4728 84.0057 29.9853 86.1567 29.9853C88.3077 29.9853 89.2549 28.4901 89.2549 27.0434ZM93.7251 19.7356H96.1282V21.4661H93.7251V19.7356ZM93.7251 22.8989H96.1282V31.2053H93.7251V22.8989ZM98.7449 22.8989H101.016V24.1206L101.059 24.1518C101.405 23.6999 101.9 23.3253 102.496 23.0658C103.092 22.8064 103.767 22.6712 104.453 22.6739C106.815 22.6739 108.314 23.6378 108.314 25.5016V31.2122H105.913V25.9844C105.87 24.683 105.196 24.1206 103.783 24.1206C102.182 24.1206 101.148 25.0845 101.148 26.3045V31.2035H98.7449V22.8989ZM124.321 31.2035H122.633L122.234 29.8555C120.821 31.0755 119.533 31.4769 117.691 31.4769C113.177 31.4769 110.479 28.7462 110.479 25.4687C110.479 22.1911 113.177 19.4622 117.691 19.4622C120.98 19.4622 123.742 20.7946 124.142 23.3817H121.579C121.325 21.871 119.596 21.1009 117.7 21.1009C114.474 21.1009 113.123 23.2692 113.123 25.4687C113.123 27.6681 114.474 29.8382 117.7 29.8382C120.398 29.8711 121.875 28.6268 121.916 26.6904H117.911V25.1641H124.321V31.2035ZM128.728 27.5262C128.728 28.8276 129.654 29.9835 131.658 29.9835C133.05 29.9835 133.893 29.518 134.315 28.5991H136.587C136.06 30.4144 134.036 31.425 131.653 31.425C128.246 31.425 126.32 29.6097 126.32 27.0555C126.32 24.6952 128.344 22.6705 131.59 22.6705C135.026 22.6705 137.136 25.0326 136.734 27.5159L128.728 27.5262ZM134.336 26.3149C134.252 25.1589 133.218 24.1154 131.594 24.1154C129.929 24.1154 128.791 25.0793 128.728 26.3149H134.336ZM145.934 25.6781C145.743 24.6657 144.773 24.1206 143.435 24.1206C142.192 24.1206 140.441 24.619 140.441 27.1403C140.441 28.5247 141.243 29.9835 143.33 29.9835C144.723 29.9835 145.693 29.2775 145.924 28.0886H148.328C147.873 30.2396 146.136 31.4285 143.33 31.4285C139.923 31.4285 138.038 29.5821 138.038 27.1403C138.038 24.6346 139.83 22.6739 143.415 22.6739C145.945 22.6739 148.096 23.6378 148.328 25.6781H145.934ZM150.36 19.7356H152.766V26.2561L157.12 22.8989H160.073L155.898 25.9515L160.475 31.2035H157.529L154.199 27.1715L152.766 28.2323V31.2035H150.36V19.7356ZM161.116 27.0434C161.116 24.5065 163.119 22.6739 166.617 22.6739C170.115 22.6739 172.112 24.5065 172.112 27.0434C172.112 29.5803 170.108 31.4285 166.608 31.4285C163.108 31.4285 161.116 29.5976 161.116 27.0434ZM169.717 27.0434C169.717 25.614 168.768 24.1206 166.617 24.1206C164.466 24.1206 163.519 25.614 163.519 27.0434C163.519 28.4728 164.468 29.9853 166.617 29.9853C168.766 29.9853 169.717 28.4901 169.717 27.0434Z" fill="white"/>
<path d="M58.092 25.6544C58.1078 28.9601 57.0648 32.1959 55.0951 34.9526C53.1253 37.7094 50.3171 39.8632 47.0257 41.1418C43.7343 42.4204 40.1075 42.7664 36.6038 42.136C33.1001 41.5055 29.8769 39.927 27.3418 37.6C24.8067 35.273 23.0736 32.302 22.3615 29.0627C21.6495 25.8234 21.9905 22.4613 23.3415 19.4015C24.6925 16.3417 26.9928 13.7217 29.9515 11.8727C32.9102 10.0237 36.3944 9.02885 39.9636 9.01384C44.75 8.99418 49.3489 10.7363 52.7486 13.857C56.1483 16.9776 58.0704 21.2213 58.092 25.6544Z" fill="#8DC63F"/>
<path d="M56.4996 25.6594C56.5144 28.6552 55.5639 31.5878 53.7682 34.0864C51.9725 36.5849 49.4123 38.5371 46.4114 39.6962C43.4104 40.8553 40.1036 41.1691 36.9089 40.598C33.7142 40.027 30.7752 38.5966 28.4636 36.4879C26.152 34.3791 24.5715 31.6867 23.922 28.7511C23.2726 25.8155 23.5834 22.7685 24.815 19.9954C26.0467 17.2224 28.1439 14.8478 30.8415 13.1721C33.5391 11.4963 36.7159 10.5945 39.9703 10.5808C42.1311 10.5718 44.2727 10.9546 46.2728 11.7074C48.2729 12.4603 50.0924 13.5684 51.6273 14.9686C53.1621 16.3688 54.3824 18.0335 55.2184 19.8679C56.0544 21.7022 56.4898 23.6701 56.4996 25.6594Z" fill="#F9E988"/>
<path d="M40.5764 11.2348C41.6295 11.0591 42.7075 11.0591 43.7606 11.2348C44.8238 11.3923 45.8514 11.7143 46.8013 12.1875C47.7451 12.6727 48.5624 13.3308 49.374 13.9518C50.1856 14.5728 50.9953 15.2009 51.7654 15.8925C52.5506 16.5725 53.2361 17.3467 53.8039 18.1949C54.3893 19.0374 54.8688 19.9402 55.2327 20.8855C55.9408 22.7735 56.1424 24.7951 55.8197 26.7729H55.714C55.4031 24.8834 54.8832 23.0292 54.1625 21.2401C53.8171 20.3553 53.4105 19.4925 52.9451 18.6572C52.456 17.8242 51.9179 17.0173 51.3332 16.2401C50.7367 15.4534 50.006 14.7638 49.1701 14.1988C48.3302 13.6395 47.3638 13.2761 46.4276 12.9321C45.4914 12.588 44.5552 12.2457 43.5832 11.9829C42.6111 11.72 41.6164 11.5242 40.5802 11.3336L40.5764 11.2348Z" fill="white"/>
<path d="M48.4572 19.8659C47.2638 19.541 46.0216 19.0826 44.7737 18.6189C44.7025 18.3238 44.4234 17.9568 43.8613 17.5089C43.0425 16.8433 41.5062 16.8608 40.1778 17.1576C38.7126 16.8345 37.2643 16.7203 35.8685 17.0329C24.5051 19.966 30.9503 27.137 26.7759 34.3379C27.3698 35.5182 33.7719 42.417 43.035 40.5605C43.035 40.5605 39.8686 33.4246 47.0164 29.9998C52.8153 27.2125 57.0065 22.0525 48.4572 19.8659Z" fill="#8BC53F"/>
<path d="M50.1307 24.9384C50.1319 25.0935 50.0864 25.2455 49.9998 25.3752C49.9132 25.5048 49.7894 25.6062 49.6442 25.6665C49.4989 25.7269 49.3388 25.7434 49.184 25.7141C49.0292 25.6848 48.8867 25.6109 48.7746 25.5018C48.6625 25.3927 48.5859 25.2533 48.5544 25.1013C48.5229 24.9493 48.538 24.7915 48.5977 24.6479C48.6574 24.5043 48.7591 24.3814 48.8899 24.2948C49.0207 24.2082 49.1747 24.1617 49.3323 24.1613C49.4366 24.1607 49.54 24.1804 49.6365 24.2191C49.7331 24.2579 49.8209 24.3149 49.895 24.3871C49.9692 24.4593 50.0281 24.5451 50.0686 24.6397C50.109 24.7343 50.1301 24.8358 50.1307 24.9384Z" fill="white"/>
<path d="M40.0454 17.1478C40.9062 17.2165 44.0201 18.3369 44.8225 18.9379C44.1584 16.7915 41.9013 16.5125 40.0454 17.1478Z" fill="#009345"/>
<path d="M41.107 22.072C41.107 22.6918 40.9047 23.2977 40.5256 23.8131C40.1465 24.3285 39.6076 24.7302 38.9772 24.9674C38.3468 25.2046 37.6531 25.2666 36.9838 25.1457C36.3146 25.0248 35.6998 24.7263 35.2173 24.288C34.7348 23.8497 34.4062 23.2913 34.2731 22.6834C34.14 22.0754 34.2083 21.4453 34.4694 20.8726C34.7305 20.3 35.1728 19.8105 35.7401 19.4662C36.3075 19.1218 36.9745 18.938 37.6569 18.938C38.5719 18.938 39.4495 19.2682 40.0965 19.8559C40.7435 20.4436 41.107 21.2408 41.107 22.072Z" fill="white"/>
<path d="M40.0454 21.8088C40.0458 22.2737 39.906 22.7284 39.6438 23.1152C39.3816 23.502 39.0087 23.8035 38.5723 23.9817C38.1359 24.1599 37.6556 24.2068 37.1921 24.1163C36.7286 24.0258 36.3028 23.8021 35.9686 23.4735C35.6344 23.1448 35.4067 22.726 35.3144 22.27C35.222 21.814 35.2692 21.3413 35.4499 20.9117C35.6307 20.4821 35.9368 20.1149 36.3296 19.8565C36.7225 19.5982 37.1844 19.4603 37.6568 19.4603C38.2898 19.4608 38.8967 19.7083 39.3445 20.1486C39.7923 20.5888 40.0443 21.1859 40.0454 21.8088Z" fill="#58595B"/>
<path d="M52.2536 26.4693C49.6609 28.1015 46.7117 29.3328 42.5294 29.3328C40.5721 29.3328 40.1761 27.4799 38.8826 28.3861C38.2132 28.8561 35.8656 29.9021 33.9894 29.828C32.1132 29.7539 29.0868 28.7685 28.2477 25.2059C27.9139 28.7685 27.7423 31.3929 26.2451 34.4012C29.2282 38.6679 36.3389 41.9576 42.7915 40.5427C42.0995 36.2171 46.3308 31.979 48.7162 29.8112C49.6175 28.9909 51.356 27.65 52.2536 26.4625V26.4693Z" fill="#8BC53F"/>
<path d="M52.2535 26.2879C51.4194 26.9588 50.4889 27.5168 49.489 27.9457C48.4923 28.3886 47.4532 28.7427 46.3855 29.0034C45.3193 29.2616 44.2036 29.4556 43.0746 29.3595C41.9455 29.2633 40.7899 28.9037 40.0454 28.1131L40.0816 28.0739C41.0031 28.6312 42.056 28.8271 43.1069 28.8556C44.174 28.8846 45.2412 28.8015 46.2884 28.6081C47.3465 28.4018 48.3816 28.1038 49.3804 27.7178C50.3954 27.3553 51.351 26.8614 52.2192 26.2505L52.2535 26.2879Z" fill="#58595B"/>
</g>
<defs>
<clipPath id="clip0_22_576">
<rect width="181.53" height="53.8054" fill="white" transform="translate(0.767334 0.656433)"/>
</clipPath>
</defs>
</svg>
