<svg width="197" height="60" viewBox="0 0 197 60" fill="none" xmlns="http://www.w3.org/2000/svg">
<g clip-path="url(#clip0_22_571)">
<path d="M32.4197 33.1776C31.8573 33.5289 31.2012 33.5928 30.7013 33.3053C30.0765 32.922 29.7016 32.0596 29.7016 30.8777V27.2681C29.7016 25.5432 29.0455 24.2974 27.9208 23.978C26.015 23.403 24.5779 25.7988 24.0467 26.6932L20.6726 32.2193V25.4154C20.6413 23.8502 20.1415 22.9239 19.2042 22.6364C18.5793 22.4448 17.6421 22.5406 16.7361 23.9461L9.20667 36.276C8.20692 34.3275 7.6758 32.1554 7.6758 29.9513C7.6758 22.5086 13.5181 16.4714 20.6726 16.4714C27.8271 16.4714 33.6693 22.5086 33.6693 29.9513V29.9833V30.0152C33.7318 31.4527 33.2944 32.6026 32.4197 33.1776ZM36.5436 29.9513V29.9194V29.8874C36.5124 20.8476 29.3892 13.4688 20.6726 13.4688C11.9247 13.4688 4.80151 20.8476 4.80151 29.9513C4.80151 39.0231 11.9247 46.4339 20.6726 46.4339C24.7028 46.4339 28.5144 44.8687 31.4512 42.0257C32.0448 41.4508 32.076 40.5244 31.5136 39.9175C30.9825 39.3106 30.0765 39.2787 29.4829 39.8217C29.4829 39.8217 29.4829 39.8217 29.4516 39.8536C27.0772 42.1535 23.8905 43.4632 20.6101 43.4632C16.7673 43.4632 13.3306 41.7383 10.9562 38.9912L17.7358 27.8751V33.0179C17.7358 35.4775 18.6731 36.276 19.4541 36.4996C20.2352 36.7232 21.4224 36.5635 22.7033 34.4872L26.4212 28.3223C26.5461 28.1306 26.6398 27.9389 26.7648 27.8112V30.9416C26.7648 33.2415 27.6708 35.0941 29.233 35.9885C30.6389 36.8191 32.4197 36.7232 33.888 35.7969C35.7001 34.5831 36.6686 32.4748 36.5436 29.9513ZM58.6632 24.3294C59.0381 24.553 59.3817 25.096 59.3817 25.5752C59.3817 26.3418 58.7569 26.9807 58.0383 26.9807C57.8509 26.9807 57.6946 26.9168 57.5384 26.8848C56.6949 26.246 55.6327 25.8307 54.5079 25.8307C51.8523 25.8307 50.0403 28.0348 50.0403 30.7819C50.0403 33.5289 51.8836 35.7011 54.5079 35.7011C55.8201 35.7011 57.0073 35.158 57.8821 34.2956C58.1008 34.1359 58.382 34.04 58.6632 34.04C59.3817 34.04 59.9441 34.615 59.9441 35.3497C59.9441 35.8288 59.6629 36.2441 59.3192 36.4677C58.0383 37.5857 56.32 38.3204 54.5392 38.3204C50.4777 38.3204 47.166 34.9025 47.166 30.686C47.166 26.4696 50.4777 23.0517 54.5392 23.0517C56.0388 23.0197 57.476 23.4989 58.6632 24.3294ZM66.0988 27.5237C68.8794 27.5237 71.1913 29.9194 71.1913 32.8901C71.1913 35.8288 68.8481 38.3523 66.0988 38.3523C63.1933 38.3523 60.7876 35.8608 60.7876 32.8901C60.7876 29.9194 63.1933 27.5237 66.0988 27.5237ZM66.0676 35.7011C67.286 35.7011 68.317 34.5192 68.317 32.922C68.317 31.3249 67.286 30.3027 66.0676 30.3027C64.7554 30.3027 63.6619 31.2929 63.6619 32.922C63.6619 34.4872 64.7554 35.7011 66.0676 35.7011ZM72.9409 36.6913V29.1528C72.9409 28.3223 73.5657 27.6514 74.378 27.6514C75.1591 27.6514 75.8151 28.3223 75.8151 29.1528V36.6913C75.8151 37.5218 75.1591 38.1926 74.378 38.1926C73.5969 38.1926 72.9409 37.4899 72.9409 36.6913ZM72.7222 24.8085C72.7222 23.8183 73.472 23.0517 74.378 23.0517C75.3153 23.0517 76.0651 23.8502 76.0651 24.8085C76.0651 25.7668 75.3153 26.5334 74.378 26.5334C73.4407 26.5015 72.7222 25.7349 72.7222 24.8085ZM81.3138 32.6026V36.6913C81.3138 37.5218 80.6577 38.1926 79.8766 38.1926C79.0956 38.1926 78.4395 37.5218 78.4395 36.6913V28.8014C78.4395 28.1625 78.9394 27.6514 79.5642 27.6514C80.1891 27.6514 80.6577 28.1945 80.6577 28.8014C81.8137 27.6834 82.8447 27.5237 83.8132 27.5237C86.6875 27.5237 87.9684 29.7277 87.9684 32.2512V36.6913C87.9684 37.5218 87.3123 38.1926 86.5312 38.1926C85.7502 38.1926 85.0941 37.5218 85.0941 36.6913V32.6026C85.0941 31.3249 84.9379 30.2388 83.1258 30.2388C81.8449 30.2388 81.3138 31.3249 81.3138 32.6026ZM97.2786 34.1678C96.9349 34.1678 96.7162 34.0081 96.5288 33.7845L93.1858 30.0791V36.6913C93.1858 37.5218 92.5297 38.1926 91.7487 38.1926C90.9676 38.1926 90.3115 37.5218 90.3115 36.6913V23.5947C90.4053 23.3711 90.624 23.2114 90.8427 23.2114C91.0926 23.2114 91.3113 23.435 91.4675 23.5947L96.8099 29.7277C96.9661 29.9194 97.1536 30.0152 97.2786 30.0152C97.3723 30.0152 97.591 29.9194 97.7472 29.7277L103.09 23.5947C103.246 23.435 103.433 23.2114 103.714 23.2114C103.964 23.2114 104.183 23.3711 104.246 23.5947V36.6913C104.246 37.5218 103.621 38.1926 102.808 38.1926C102.027 38.1926 101.371 37.5218 101.371 36.6913V30.0791L98.0284 33.7845C97.7785 34.0081 97.5598 34.1678 97.2786 34.1678ZM111.088 35.7011C112.369 35.7011 113.462 34.5192 113.462 32.922C113.462 31.3249 112.337 30.2708 111.088 30.2708C109.838 30.2708 108.807 31.3568 108.807 32.922C108.807 34.4553 109.807 35.7011 111.088 35.7011ZM114.149 37.0427L114.087 36.6913C113.525 37.8093 111.744 38.3204 110.619 38.3204C107.932 38.3204 105.933 35.8288 105.933 32.8581C105.933 29.9194 107.963 27.4917 110.775 27.4917C111.244 27.4917 112.868 27.6195 114.118 29.1208L114.181 28.7694C114.181 28.1306 114.649 27.6195 115.274 27.6195C115.899 27.6195 116.399 28.1625 116.399 28.7694V37.0107C116.399 37.6496 115.899 38.1607 115.274 38.1607C114.618 38.1926 114.149 37.6496 114.149 37.0427ZM124.303 30.2388H123.991C122.179 30.3347 121.835 31.3888 121.835 32.6026V36.6913C121.835 37.5218 121.179 38.1926 120.398 38.1926C119.617 38.1926 118.961 37.5218 118.961 36.6913V28.8014C118.961 28.1625 119.461 27.6514 120.085 27.6514C120.71 27.6514 121.179 28.1945 121.179 28.8014C122.241 27.7792 123.116 27.5556 123.991 27.5237H124.272C124.959 27.5237 125.584 28.1306 125.584 28.8972C125.615 29.6 124.99 30.2388 124.303 30.2388ZM135.394 35.9885C135.519 36.2121 135.613 36.4357 135.613 36.6913C135.613 37.4579 134.925 38.1607 134.176 38.1607C133.676 38.1607 133.238 37.7773 132.895 37.3301L129.583 33.4012V36.6593C129.583 37.4899 128.927 38.1607 128.146 38.1607C127.365 38.1607 126.709 37.4899 126.709 36.6593V24.6808C126.709 23.8502 127.334 23.1794 128.146 23.1794C128.958 23.1794 129.583 23.8502 129.583 24.6808V32.1554L132.895 28.4181C133.238 28.0348 133.645 27.6195 134.144 27.6195C134.863 27.6195 135.519 28.2903 135.519 29.0569C135.519 29.2805 135.457 29.5361 135.332 29.7277L132.707 32.6665L135.394 35.9885ZM141.018 30.2708C140.237 30.2708 138.956 30.686 138.956 31.9318H143.111C143.08 30.686 141.768 30.2708 141.018 30.2708ZM144.767 33.8164H138.956C138.956 35.5733 140.612 35.8608 141.33 35.8608C141.861 35.8608 142.611 35.7649 143.205 35.4775C143.392 35.3497 143.673 35.2539 143.954 35.2539C144.579 35.2539 145.11 35.7969 145.11 36.4677C145.11 36.9149 144.829 37.2982 144.486 37.5218C143.611 38.1926 142.455 38.3523 141.361 38.3523C138.456 38.3523 136.05 36.7552 136.05 33.0179C136.05 30.0791 137.519 27.5237 140.955 27.5237C143.736 27.5237 145.829 29.3764 145.892 32.6665C145.892 33.2734 145.392 33.8164 144.767 33.8164ZM152.765 38.3204H151.984C149.797 38.3204 148.516 37.3301 148.516 33.8484V30.2388H147.766C147.079 30.2388 146.485 29.6 146.485 28.8972C146.485 28.1306 147.11 27.5237 147.766 27.5237H148.516V24.7447C148.516 23.9141 149.141 23.2433 149.953 23.2433C150.734 23.2433 151.39 23.9141 151.39 24.7447V27.5237H152.577C153.265 27.5237 153.858 28.1306 153.858 28.8972C153.858 29.6 153.233 30.2388 152.577 30.2388H151.39V33.2734C151.39 35.2858 151.484 35.7011 152.359 35.7011H152.765C153.452 35.7011 154.046 36.276 154.046 37.0107C154.046 37.7135 153.452 38.3204 152.765 38.3204ZM166.668 24.3294C167.043 24.553 167.386 25.096 167.386 25.5752C167.386 26.3418 166.761 26.9807 166.043 26.9807C165.855 26.9807 165.699 26.9168 165.543 26.8848C164.699 26.246 163.637 25.8307 162.512 25.8307C159.857 25.8307 158.045 28.0348 158.045 30.7819C158.045 33.5289 159.888 35.7011 162.512 35.7011C163.825 35.7011 165.012 35.158 165.887 34.2956C166.105 34.1359 166.386 34.04 166.668 34.04C167.386 34.04 167.949 34.615 167.949 35.3497C167.949 35.8288 167.667 36.2441 167.324 36.4677C166.043 37.5857 164.324 38.3204 162.544 38.3204C158.482 38.3204 155.17 34.9025 155.17 30.686C155.17 26.4696 158.482 23.0517 162.544 23.0517C164.043 23.0197 165.512 23.4989 166.668 24.3294ZM173.947 35.7011C175.228 35.7011 176.321 34.5192 176.321 32.922C176.321 31.3249 175.197 30.2708 173.947 30.2708C172.666 30.2708 171.666 31.3568 171.666 32.922C171.666 34.4553 172.697 35.7011 173.947 35.7011ZM177.009 37.0427L176.946 36.6913C176.384 37.8093 174.603 38.3204 173.478 38.3204C170.792 38.3204 168.792 35.8288 168.792 32.8581C168.792 29.9194 170.823 27.4917 173.635 27.4917C174.103 27.4917 175.728 27.6195 176.978 29.1208L177.04 28.7694C177.04 28.1306 177.509 27.6195 178.134 27.6195C178.758 27.6195 179.258 28.1625 179.258 28.7694V37.0107C179.258 37.6496 178.758 38.1607 178.134 38.1607C177.477 38.1926 177.009 37.6496 177.009 37.0427ZM187.1 35.7011C188.381 35.7011 189.381 34.4553 189.381 32.922C189.381 31.3249 188.35 30.2708 187.1 30.2708C185.819 30.2708 184.726 31.3249 184.726 32.922C184.726 34.5192 185.819 35.7011 187.1 35.7011ZM184.726 37.4579V41.1952C184.726 42.0258 184.07 42.6965 183.288 42.6965C182.507 42.6965 181.851 42.0258 181.851 41.1952V28.8014C181.851 28.1625 182.351 27.6514 182.976 27.6514C183.601 27.6514 184.07 28.1945 184.07 28.9292C185.132 27.8112 186.444 27.5237 187.444 27.5237C190.224 27.5237 192.286 29.9194 192.286 32.8901C192.286 35.8288 190.318 38.3523 187.6 38.3523C186.756 38.3204 185.507 38.0648 184.726 37.4579Z" fill="#0441F8"/>
</g>
<defs>
<clipPath id="clip0_22_571">
<rect width="196.27" height="58.7906" fill="white" transform="translate(0.408691 0.556061)"/>
</clipPath>
</defs>
</svg>
