<svg width="301" height="536" viewBox="0 0 301 536" fill="none" xmlns="http://www.w3.org/2000/svg">
<g filter="url(#filter0_b_25_695)">
<path d="M0 20.3557C0 9.31001 8.95431 0.355713 20 0.355713H280.494C291.54 0.355713 300.494 9.31002 300.494 20.3557V515.117C300.494 526.163 291.54 535.117 280.494 535.117H20C8.95429 535.117 0 526.163 0 515.117V20.3557Z" fill="url(#paint0_linear_25_695)"/>
<path d="M1 20.3557C1 9.8623 9.50659 1.35571 20 1.35571H280.494C290.987 1.35571 299.494 9.8623 299.494 20.3557V515.117C299.494 525.611 290.987 534.117 280.494 534.117H20C9.50658 534.117 1 525.611 1 515.117V20.3557Z" stroke="#239B0A" stroke-opacity="0.3" stroke-width="2"/>
</g>
<defs>
<filter id="filter0_b_25_695" x="-4" y="-3.64429" width="308.494" height="542.761" filterUnits="userSpaceOnUse" color-interpolation-filters="sRGB">
<feFlood flood-opacity="0" result="BackgroundImageFix"/>
<feGaussianBlur in="BackgroundImageFix" stdDeviation="2"/>
<feComposite in2="SourceAlpha" operator="in" result="effect1_backgroundBlur_25_695"/>
<feBlend mode="normal" in="SourceGraphic" in2="effect1_backgroundBlur_25_695" result="shape"/>
</filter>
<linearGradient id="paint0_linear_25_695" x1="0" y1="0.355713" x2="432.986" y2="273.22" gradientUnits="userSpaceOnUse">
<stop stop-color="#239B0A" stop-opacity="0.2"/>
<stop offset="1" stop-color="#EFEFEF" stop-opacity="0.01"/>
</linearGradient>
</defs>
</svg>
