<svg width="301" height="359" viewBox="0 0 301 359" fill="none" xmlns="http://www.w3.org/2000/svg">
<g filter="url(#filter0_b_25_768)">
<path d="M0.317627 20.0791C0.317627 9.03341 9.27193 0.0791016 20.3176 0.0791016H280.812C291.857 0.0791016 300.812 9.03341 300.812 20.0791V339C300.812 350.046 291.857 359 280.812 359H20.3176C9.27192 359 0.317627 350.046 0.317627 339V20.0791Z" fill="url(#paint0_linear_25_768)"/>
<path d="M1.31763 20.0791C1.31763 9.58569 9.82422 1.0791 20.3176 1.0791H280.812C291.305 1.0791 299.812 9.58569 299.812 20.0791V339C299.812 349.493 291.305 358 280.812 358H20.3176C9.82421 358 1.31763 349.493 1.31763 339V20.0791Z" stroke="#239B0A" stroke-opacity="0.3" stroke-width="2"/>
</g>
<defs>
<filter id="filter0_b_25_768" x="-3.68237" y="-3.9209" width="308.494" height="366.921" filterUnits="userSpaceOnUse" color-interpolation-filters="sRGB">
<feFlood flood-opacity="0" result="BackgroundImageFix"/>
<feGaussianBlur in="BackgroundImageFix" stdDeviation="2"/>
<feComposite in2="SourceAlpha" operator="in" result="effect1_backgroundBlur_25_768"/>
<feBlend mode="normal" in="SourceGraphic" in2="effect1_backgroundBlur_25_768" result="shape"/>
</filter>
<linearGradient id="paint0_linear_25_768" x1="0.317627" y1="0.0791016" x2="321.823" y2="301.951" gradientUnits="userSpaceOnUse">
<stop stop-color="#239B0A" stop-opacity="0.2"/>
<stop offset="1" stop-color="#EFEFEF" stop-opacity="0.01"/>
</linearGradient>
</defs>
</svg>
