<svg width="197" height="60" fill="none" xmlns="http://www.w3.org/2000/svg"><g clip-path="url('#clip0_22_571')"><path d="M32.42 33.178c-.563.35-1.219.415-1.719.127-.625-.383-1-1.245-1-2.427v-3.61c0-1.725-.655-2.97-1.78-3.29-1.906-.575-3.343 1.82-3.874 2.715l-3.374 5.526v-6.804c-.032-1.565-.531-2.491-1.469-2.779-.625-.191-1.562-.095-2.468 1.31l-7.53 12.33c-1-1.949-1.53-4.12-1.53-6.325 0-7.442 5.842-13.48 12.997-13.48 7.154 0 12.996 6.038 12.996 13.48v.064c.063 1.438-.375 2.588-1.25 3.163Zm4.124-3.227v-.064c-.032-9.04-7.155-16.418-15.871-16.418-8.748 0-15.871 7.379-15.871 16.482 0 9.072 7.123 16.483 15.87 16.483 4.03 0 7.842-1.565 10.78-4.408a1.499 1.499 0 0 0 .062-2.109c-.531-.606-1.438-.638-2.031-.095l-.031.032c-2.375 2.3-5.562 3.61-8.842 3.61-3.843 0-7.28-1.726-9.654-4.473l6.78-11.116v5.143c0 2.46.937 3.258 1.718 3.482.781.223 1.968.063 3.25-2.013l3.717-6.165c.125-.191.219-.383.344-.51v3.13c0 2.3.906 4.152 2.468 5.047 1.406.83 3.187.734 4.655-.192 1.812-1.214 2.78-3.322 2.656-5.846Zm22.12-5.622c.374.224.718.767.718 1.246 0 .767-.625 1.406-1.344 1.406-.187 0-.343-.064-.5-.096-.843-.639-1.905-1.054-3.03-1.054-2.656 0-4.468 2.204-4.468 4.95 0 2.748 1.844 4.92 4.468 4.92 1.312 0 2.5-.543 3.374-1.405.219-.16.5-.256.781-.256.719 0 1.281.575 1.281 1.31 0 .479-.281.894-.625 1.118-1.28 1.118-2.999 1.852-4.78 1.852-4.061 0-7.373-3.417-7.373-7.634 0-4.216 3.312-7.634 7.373-7.634 1.5-.032 2.937.447 4.124 1.277Zm7.435 3.195c2.78 0 5.092 2.395 5.092 5.366 0 2.939-2.343 5.462-5.092 5.462-2.906 0-5.311-2.491-5.311-5.462 0-2.97 2.405-5.366 5.31-5.366Zm-.031 8.177c1.218 0 2.249-1.182 2.249-2.779s-1.031-2.62-2.25-2.62c-1.312 0-2.405.99-2.405 2.62 0 1.565 1.093 2.78 2.406 2.78Zm6.873.99v-7.538c0-.83.625-1.502 1.437-1.502.781 0 1.437.671 1.437 1.502v7.538c0 .83-.656 1.502-1.437 1.502s-1.437-.703-1.437-1.502Zm-.219-11.883c0-.99.75-1.756 1.656-1.756.937 0 1.687.798 1.687 1.756 0 .959-.75 1.725-1.687 1.725a1.714 1.714 0 0 1-1.656-1.725Zm8.592 7.795v4.088c0 .83-.656 1.502-1.437 1.502s-1.438-.671-1.438-1.502v-7.89c0-.638.5-1.15 1.125-1.15s1.094.544 1.094 1.15c1.156-1.118 2.187-1.277 3.155-1.277 2.874 0 4.155 2.204 4.155 4.727v4.44c0 .83-.656 1.502-1.437 1.502-.78 0-1.437-.671-1.437-1.502v-4.088c0-1.278-.156-2.364-1.968-2.364-1.281 0-1.812 1.086-1.812 2.364Zm15.965 1.565c-.344 0-.563-.16-.75-.383l-3.343-3.706v6.612c0 .83-.656 1.502-1.437 1.502s-1.438-.671-1.438-1.502V23.595c.094-.224.313-.384.532-.384.25 0 .468.224.624.384l5.343 6.133c.156.191.344.287.469.287.093 0 .312-.096.468-.287l5.343-6.133c.156-.16.343-.384.624-.384.25 0 .469.16.532.384V36.69c0 .83-.625 1.502-1.438 1.502-.781 0-1.437-.671-1.437-1.502V30.08l-3.343 3.706c-.25.223-.468.383-.75.383Zm13.809 1.533c1.281 0 2.374-1.182 2.374-2.779s-1.125-2.651-2.374-2.651c-1.25 0-2.281 1.086-2.281 2.651 0 1.533 1 2.78 2.281 2.78Zm3.061 1.342-.062-.352c-.562 1.118-2.343 1.63-3.468 1.63-2.687 0-4.686-2.492-4.686-5.463 0-2.939 2.03-5.366 4.842-5.366a4.45 4.45 0 0 1 3.343 1.629l.063-.352c0-.638.468-1.15 1.093-1.15s1.125.544 1.125 1.15v8.242c0 .639-.5 1.15-1.125 1.15-.656.032-1.125-.511-1.125-1.118Zm10.154-6.804h-.312c-1.812.096-2.156 1.15-2.156 2.364v4.088c0 .83-.656 1.502-1.437 1.502s-1.437-.671-1.437-1.502v-7.89c0-.638.5-1.15 1.124-1.15.625 0 1.094.544 1.094 1.15 1.062-1.022 1.937-1.245 2.812-1.277h.281c.687 0 1.312.607 1.312 1.373.031.703-.594 1.342-1.281 1.342Zm11.091 5.75c.125.223.219.447.219.702 0 .767-.688 1.47-1.437 1.47-.5 0-.938-.384-1.281-.83l-3.312-3.93v3.258c0 .83-.656 1.502-1.437 1.502s-1.437-.671-1.437-1.502V24.681c0-.83.625-1.502 1.437-1.502s1.437.671 1.437 1.502v7.474l3.312-3.737c.343-.383.75-.799 1.249-.799.719 0 1.375.671 1.375 1.438 0 .224-.062.48-.187.67l-2.625 2.94 2.687 3.322Zm5.624-5.718c-.781 0-2.062.415-2.062 1.66h4.155c-.031-1.245-1.343-1.66-2.093-1.66Zm3.749 3.545h-5.811c0 1.757 1.656 2.045 2.374 2.045.531 0 1.281-.096 1.875-.383.187-.128.468-.224.749-.224.625 0 1.156.543 1.156 1.214 0 .447-.281.83-.624 1.054-.875.67-2.031.83-3.125.83-2.905 0-5.311-1.597-5.311-5.334 0-2.939 1.469-5.494 4.905-5.494 2.781 0 4.874 1.852 4.937 5.142 0 .607-.5 1.15-1.125 1.15Zm7.998 4.504h-.781c-2.187 0-3.468-.99-3.468-4.472v-3.61h-.75c-.687 0-1.281-.638-1.281-1.34 0-.767.625-1.374 1.281-1.374h.75v-2.78c0-.83.625-1.5 1.437-1.5.781 0 1.437.67 1.437 1.5v2.78h1.187c.688 0 1.281.607 1.281 1.373 0 .703-.625 1.342-1.281 1.342h-1.187v3.034c0 2.013.094 2.428.969 2.428h.406c.687 0 1.281.575 1.281 1.31 0 .703-.594 1.31-1.281 1.31Zm13.903-13.99c.375.223.718.766.718 1.245 0 .767-.625 1.406-1.343 1.406-.188 0-.344-.064-.5-.096-.844-.639-1.906-1.054-3.031-1.054-2.655 0-4.467 2.204-4.467 4.95 0 2.748 1.843 4.92 4.467 4.92 1.313 0 2.5-.543 3.375-1.405.218-.16.499-.256.781-.256.718 0 1.281.575 1.281 1.31 0 .479-.282.894-.625 1.118-1.281 1.118-3 1.852-4.78 1.852-4.062 0-7.374-3.417-7.374-7.634 0-4.216 3.312-7.634 7.374-7.634a6.887 6.887 0 0 1 4.124 1.277Zm7.279 11.371c1.281 0 2.374-1.182 2.374-2.779s-1.124-2.651-2.374-2.651c-1.281 0-2.281 1.086-2.281 2.651 0 1.533 1.031 2.78 2.281 2.78Zm3.062 1.342-.063-.352c-.562 1.118-2.343 1.63-3.468 1.63-2.686 0-4.686-2.492-4.686-5.463 0-2.939 2.031-5.366 4.843-5.366.468 0 2.093.127 3.343 1.629l.062-.352c0-.638.469-1.15 1.094-1.15.624 0 1.124.544 1.124 1.15v8.242c0 .639-.5 1.15-1.124 1.15-.657.032-1.125-.511-1.125-1.118ZM187.1 35.7c1.281 0 2.281-1.246 2.281-2.779 0-1.597-1.031-2.651-2.281-2.651-1.281 0-2.374 1.054-2.374 2.651 0 1.597 1.093 2.78 2.374 2.78Zm-2.374 1.757v3.737c0 .83-.656 1.502-1.438 1.502-.781 0-1.437-.671-1.437-1.502V28.801c0-.638.5-1.15 1.125-1.15s1.094.544 1.094 1.278c1.062-1.118 2.374-1.405 3.374-1.405 2.78 0 4.842 2.395 4.842 5.366 0 2.939-1.968 5.462-4.686 5.462-.844-.032-2.093-.287-2.874-.894Z" fill="#0441F8"/></g><defs><clipPath id="clip0_22_571"><path fill="#fff" transform="translate(.409 .556)" d="M0 0h196.27v58.791H0z"/></clipPath></defs></svg>