<svg width="183" height="55" fill="none" xmlns="http://www.w3.org/2000/svg"><g clip-path="url('#clip0_22_576')"><path d="M76.435 23.382c-.443-1.317-1.56-2.281-3.752-2.281-3.228 0-4.577 2.168-4.577 4.368s1.349 4.37 4.577 4.37c2.34 0 3.634-1.333 3.836-3.003h2.574c-.212 2.746-2.762 4.64-6.41 4.64-4.514 0-7.212-2.73-7.212-6.007 0-3.278 2.698-6.007 7.212-6.007 3.393.016 6.071 1.445 6.387 3.92h-2.635Zm4.218 3.661c0-2.537 2.003-4.37 5.504-4.37 3.5 0 5.501 1.834 5.501 4.37 0 2.537-2.003 4.386-5.501 4.386s-5.504-1.831-5.504-4.386Zm8.602 0c0-1.429-.95-2.922-3.098-2.922-2.15 0-3.1 1.493-3.1 2.922 0 1.43.949 2.942 3.1 2.942 2.15 0 3.098-1.495 3.098-2.942Zm4.47-7.307h2.403v1.73h-2.403v-1.73Zm0 3.163h2.403v8.306h-2.403V22.9Zm5.02 0h2.271v1.222l.043.03c.346-.451.841-.826 1.437-1.085a4.885 4.885 0 0 1 1.957-.392c2.362 0 3.861.964 3.861 2.828v5.71h-2.401v-5.228c-.043-1.301-.717-1.863-2.13-1.863-1.601 0-2.635.963-2.635 2.184v4.898h-2.403V22.9Zm25.576 8.304h-1.688l-.399-1.348c-1.413 1.22-2.701 1.622-4.543 1.622-4.514 0-7.212-2.73-7.212-6.008s2.698-6.007 7.212-6.007c3.289 0 6.051 1.333 6.451 3.92h-2.563c-.254-1.511-1.983-2.281-3.879-2.281-3.226 0-4.577 2.168-4.577 4.368s1.351 4.37 4.577 4.37c2.698.032 4.175-1.212 4.216-3.149h-4.005v-1.526h6.41v6.04Zm4.407-3.677c0 1.302.926 2.457 2.93 2.457 1.392 0 2.235-.465 2.657-1.384h2.272c-.527 1.815-2.551 2.826-4.934 2.826-3.407 0-5.333-1.815-5.333-4.37 0-2.36 2.024-4.384 5.27-4.384 3.436 0 5.546 2.362 5.144 4.845l-8.006.01Zm5.608-1.211c-.084-1.156-1.118-2.2-2.742-2.2-1.665 0-2.803.964-2.866 2.2h5.608Zm11.598-.637c-.191-1.012-1.161-1.557-2.499-1.557-1.243 0-2.994.498-2.994 3.02 0 1.384.802 2.843 2.889 2.843 1.393 0 2.363-.707 2.594-1.895h2.404c-.455 2.15-2.192 3.34-4.998 3.34-3.407 0-5.292-1.847-5.292-4.289 0-2.505 1.792-4.466 5.377-4.466 2.53 0 4.681.964 4.913 3.004h-2.394Zm4.426-5.942h2.406v6.52l4.354-3.357h2.953l-4.175 3.052 4.577 5.252h-2.946l-3.33-4.031-1.433 1.06v2.971h-2.406V19.736Zm10.756 7.307c0-2.537 2.003-4.37 5.501-4.37s5.495 1.834 5.495 4.37c0 2.537-2.004 4.386-5.504 4.386-3.5 0-5.492-1.831-5.492-4.386Zm8.601 0c0-1.429-.949-2.922-3.1-2.922-2.151 0-3.098 1.493-3.098 2.922 0 1.43.949 2.942 3.098 2.942s3.1-1.495 3.1-2.942Z" fill="#fff"/><path d="M58.092 25.654c.016 3.306-1.027 6.542-2.997 9.299-1.97 2.756-4.778 4.91-8.07 6.189a19.383 19.383 0 0 1-10.421.994c-3.504-.63-6.727-2.209-9.262-4.536-2.535-2.327-4.268-5.298-4.98-8.537a15.569 15.569 0 0 1 .98-9.662c1.35-3.06 3.65-5.68 6.61-7.528 2.958-1.85 6.442-2.844 10.012-2.86 4.786-.019 9.385 1.723 12.785 4.844 3.4 3.12 5.321 7.364 5.343 11.797Z" fill="#8DC63F"/><path d="M56.5 25.66c.014 2.995-.936 5.928-2.732 8.426-1.796 2.499-4.356 4.451-7.357 5.61a17.773 17.773 0 0 1-9.502.902c-3.195-.571-6.134-2.001-8.445-4.11-2.312-2.109-3.892-4.801-4.542-7.737a14.031 14.031 0 0 1 .893-8.756c1.232-2.773 3.329-5.147 6.026-6.823 2.698-1.676 5.875-2.578 9.13-2.591 2.16-.01 4.302.374 6.302 1.126 2 .753 3.82 1.861 5.354 3.262a15.147 15.147 0 0 1 3.591 4.899 14.116 14.116 0 0 1 1.282 5.791Z" fill="#F9E988"/><path d="M40.576 11.235a9.684 9.684 0 0 1 3.185 0c1.063.157 2.09.48 3.04.953.944.485 1.761 1.143 2.573 1.764.812.62 1.621 1.249 2.391 1.94.786.68 1.471 1.455 2.039 2.303a12.733 12.733 0 0 1 1.429 2.69c.708 1.888.91 3.91.587 5.888h-.106a26.18 26.18 0 0 0-1.551-5.533 20.987 20.987 0 0 0-1.218-2.583 25.484 25.484 0 0 0-1.612-2.417A9.118 9.118 0 0 0 49.17 14.2c-.84-.56-1.806-.923-2.742-1.267-.937-.344-1.873-.686-2.845-.95-.972-.262-1.967-.458-3.003-.648l-.004-.1Z" fill="#fff"/><path d="M48.457 19.866c-1.193-.325-2.435-.783-3.683-1.247-.072-.295-.35-.662-.913-1.11-.819-.666-2.355-.648-3.683-.351-1.465-.324-2.914-.438-4.31-.125-11.363 2.933-4.918 10.104-9.092 17.305.594 1.18 6.996 8.079 16.259 6.222 0 0-3.166-7.135 3.981-10.56 5.8-2.788 9.99-7.948 1.441-10.134Z" fill="#8BC53F"/><path d="M50.13 24.938a.775.775 0 0 1-.13.437.808.808 0 0 1-1.225.127.78.78 0 0 1-.177-.854.786.786 0 0 1 .292-.353.805.805 0 0 1 1.179.345c.04.094.061.196.062.298Z" fill="#fff"/><path d="M40.045 17.148c.861.069 3.975 1.189 4.777 1.79-.664-2.146-2.92-2.425-4.777-1.79Z" fill="#009345"/><path d="M41.107 22.072c0 .62-.202 1.226-.581 1.741a3.4 3.4 0 0 1-1.549 1.154c-.63.238-1.324.3-1.993.179a3.57 3.57 0 0 1-1.767-.858 3.057 3.057 0 0 1-.944-1.605 2.869 2.869 0 0 1 .196-1.81 3.22 3.22 0 0 1 1.271-1.407 3.702 3.702 0 0 1 1.917-.528c.915 0 1.793.33 2.44.918.646.588 1.01 1.385 1.01 2.216Z" fill="#fff"/><path d="M40.045 21.809c0 .465-.139.92-.401 1.306a2.38 2.38 0 0 1-1.072.867 2.424 2.424 0 0 1-2.603-.508 2.34 2.34 0 0 1-.655-1.204 2.315 2.315 0 0 1 .136-1.358c.18-.43.487-.797.88-1.055a2.417 2.417 0 0 1 3.014.292c.448.44.7 1.037.701 1.66Z" fill="#58595B"/><path d="M52.254 26.47c-2.593 1.632-5.542 2.863-9.725 2.863-1.957 0-2.353-1.853-3.646-.947-.67.47-3.017 1.516-4.894 1.442-1.876-.074-4.902-1.06-5.741-4.622-.334 3.563-.506 6.187-2.003 9.195 2.983 4.267 10.094 7.557 16.546 6.142-.691-4.326 3.54-8.564 5.925-10.732.901-.82 2.64-2.161 3.538-3.349v.007Z" fill="#8BC53F"/><path d="M52.254 26.288a11.883 11.883 0 0 1-2.765 1.658 18.38 18.38 0 0 1-3.103 1.057c-1.067.259-2.182.453-3.311.357-1.13-.097-2.285-.456-3.03-1.247l.037-.04c.921.558 1.974.754 3.025.783a15.245 15.245 0 0 0 3.181-.248 18.286 18.286 0 0 0 3.092-.89 11.87 11.87 0 0 0 2.84-1.468l.034.038Z" fill="#58595B"/></g><defs><clipPath id="clip0_22_576"><path fill="#fff" transform="translate(.767 .656)" d="M0 0h181.53v53.805H0z"/></clipPath></defs></svg>