<svg width="21" height="14" fill="none" xmlns="http://www.w3.org/2000/svg"><path opacity=".976" fill-rule="evenodd" clip-rule="evenodd" d="M8.095.142c3.23-.005 6.461 0 9.692.016 1.778.196 2.811.903 3.099 2.12.045 2.52.03 5.039-.047 7.557-.396 1.1-1.413 1.732-3.052 1.897-.31.016-.621.021-.932.016-.21.878-.91 1.5-2.097 1.865-.314.089-.64.142-.978.16-3.231.021-6.462.021-9.693 0-1.779-.197-2.811-.904-3.099-2.12a129.45 129.45 0 0 1 .047-6.888c.359-1.032 1.298-1.653 2.82-1.865.372-.016.744-.021 1.117-.016-.146-1.283.646-2.16 2.377-2.63.252-.048.5-.085.746-.112Zm.046 1.403c3.2-.005 6.4 0 9.6.016.582.1.947.35 1.094.75.031 2.422.031 4.846 0 7.269-.147.399-.512.648-1.095.75-.279.015-.558.02-.838.015.007-1.839 0-3.677-.024-5.516-.35-1.047-1.289-1.69-2.819-1.929-2.36-.016-4.722-.021-7.083-.016-.132-.67.256-1.117 1.165-1.34Zm-3.914 2.71c3.138-.005 6.275 0 9.413.016.69.09 1.102.372 1.234.845.032 2.147.032 4.294 0 6.44-.144.429-.524.7-1.141.814-3.2.021-6.4.021-9.6 0-.582-.101-.947-.35-1.094-.75-.031-2.189-.031-4.378 0-6.568.175-.422.57-.688 1.188-.797Z" fill="#239B0A"/></svg>