<svg width="31" height="30" fill="none" xmlns="http://www.w3.org/2000/svg"><g clip-path="url('#clip0_22_595')" fill-rule="evenodd" clip-rule="evenodd"><path d="M15.032 2.222c1.326 0 2.6.238 3.825.716a9.135 9.135 0 0 1 2.94 1.951c.236 0 .461-.048.675-.144a3.95 3.95 0 0 0 1.553-1.28 5.83 5.83 0 0 1-.66 1.374 13.752 13.752 0 0 1-2.168 2.508c-1.05.961-2.195 1.8-3.435 2.515-.313.173-.633.335-.96.485-1.024-.694-2.046-.694-3.067 0a15 15 0 0 1-2.213-1.265A18.277 18.277 0 0 1 7.96 5.909 8.838 8.838 0 0 1 6.715 4a4.62 4.62 0 0 1-.21-.549c.407.556.924.987 1.552 1.294.159.069.324.117.495.144.065.01.13.01.195 0 1.487-1.465 3.292-2.328 5.415-2.587.292-.033.582-.06.87-.08Z" fill="#FEFEFE"/><path d="M11.357 13.238c.139.005.274.02.405.043-.06.422-.1.846-.12 1.272a530.31 530.31 0 0 1-2.91 1.627c.773.423 1.548.842 2.325 1.258.4.235.737.536 1.013.903.508.713.928 1.474 1.26 2.284.395.963.744 1.941 1.05 2.935.29.965.585 1.929.885 2.891.078-.22.153-.442.225-.665a65.011 65.011 0 0 1 1.35-4.236 15.72 15.72 0 0 1 1.275-2.703c.26-.43.583-.813.967-1.15.145-.103.295-.2.45-.288.758-.406 1.513-.816 2.265-1.23a424.598 424.598 0 0 0-2.91-1.625c-.01-.285-.027-.57-.052-.853a33.5 33.5 0 0 0-.068-.434 4.318 4.318 0 0 0 2.04-.513c1.173-.745 1.595-1.778 1.268-3.101a4.976 4.976 0 0 0-.39-.882.06.06 0 0 1 0-.058 14.071 14.071 0 0 0 1.462-1.706c.008-.015.018-.017.03-.007a8.6 8.6 0 0 1 1.208 3.983l.015 3.18a19.64 19.64 0 0 0 1.155 7.026c.292.782.64 1.541 1.042 2.277-.01.01-.02.01-.03 0l-3.075-2.393a614.38 614.38 0 0 0-2.212 3.441 231.14 231.14 0 0 0-2.31-2.096l-3.698 5.768c-1.238-1.92-2.473-3.843-3.705-5.768-.765.699-1.535 1.393-2.31 2.082l-2.212-3.427-3.09 2.4a18.274 18.274 0 0 0 2.002-6.245.717.717 0 0 0 .03-.217c.075-.697.123-1.395.143-2.096l.015-3.918a8.589 8.589 0 0 1 1.222-4.004c.46.61.96 1.191 1.5 1.742a4.47 4.47 0 0 0-.472 1.178c-.185 1.391.373 2.396 1.672 3.014.412.177.841.28 1.29.311Z" fill="#FEFEFE"/><path d="M10.007 9.71a18.264 18.264 0 0 0 2.91 1.764c.015.008.018.017.008.03a2.685 2.685 0 0 1-2.198.151c-.735-.316-1.017-.853-.847-1.612.04-.112.083-.222.127-.332ZM20.507 9.71c.229.375.271.77.128 1.186a1.49 1.49 0 0 1-.878.773 2.687 2.687 0 0 1-1.995-.086.686.686 0 0 1-.165-.094 16.946 16.946 0 0 0 2.91-1.778Z" fill="#FDFDFD"/><path d="M15.107 11.229c.311-.021.601.044.87.195.7.448 1.132 1.072 1.298 1.872.118.585.156 1.175.112 1.77a.52.52 0 0 0 .285.463c.389.206.774.418 1.155.636a5.561 5.561 0 0 0-2.032 1.901c-.4.656-.725 1.345-.975 2.068l-.555 1.633a49.64 49.64 0 0 0-.735-2.125 8.16 8.16 0 0 0-1.23-2.183 5.61 5.61 0 0 0-1.583-1.294c.386-.224.776-.44 1.17-.65a.518.518 0 0 0 .248-.325l.015-1.1a3.899 3.899 0 0 1 .48-1.734c.277-.47.67-.82 1.177-1.048.1-.031.2-.058.3-.08Z" fill="#FEFEFE"/><path d="M11.357 13.238h.42c.004.019-.001.033-.015.043a2.829 2.829 0 0 0-.405-.043Z" fill="#737376"/><path d="M5.987 17.011c.001.076-.009.148-.03.217 0-.076.01-.148.03-.217Z" fill="#AFAFB1"/></g><defs><clipPath id="clip0_22_595"><path fill="#fff" transform="translate(.28 .755)" d="M0 0h30v28.913H0z"/></clipPath></defs></svg>