<svg width="25" height="26" fill="none" xmlns="http://www.w3.org/2000/svg"><mask id="mask0_10_501" style="mask-type:luminance" maskUnits="userSpaceOnUse" x="0" y="0" width="25" height="26"><path d="M24.884.946H.378v25h24.506v-25Z" fill="#fff"/></mask><g mask="url('#mask0_10_501')" fill="#239B0A"><path d="M12.98 2.003c-2.853 0-3.21.013-4.331.065-1.118.052-1.881.233-2.55.498a5.14 5.14 0 0 0-1.86 1.236 5.263 5.263 0 0 0-1.211 1.897c-.26.682-.437 1.46-.488 2.601-.051 1.143-.063 1.508-.063 4.418s.012 3.274.063 4.417c.05 1.14.228 1.92.488 2.6a5.265 5.265 0 0 0 1.211 1.899 5.14 5.14 0 0 0 1.86 1.235c.669.265 1.432.446 2.55.498 1.12.052 1.478.065 4.33.065 2.853 0 3.21-.012 4.33-.065 1.118-.052 1.882-.233 2.55-.498a5.14 5.14 0 0 0 1.86-1.235 5.266 5.266 0 0 0 1.211-1.898c.26-.682.438-1.46.489-2.6.05-1.144.063-1.509.063-4.418 0-2.91-.012-3.275-.063-4.418-.051-1.14-.229-1.92-.489-2.6a5.265 5.265 0 0 0-1.21-1.898 5.14 5.14 0 0 0-1.861-1.236c-.668-.265-1.432-.446-2.55-.498-1.12-.052-1.478-.065-4.33-.065Zm0 1.93c2.803 0 3.136.012 4.243.063 1.024.048 1.58.222 1.95.37.49.194.84.426 1.208.8.367.376.595.733.786 1.233.143.377.315.944.361 1.99.05 1.129.062 1.468.062 4.329 0 2.86-.011 3.2-.062 4.33-.046 1.044-.217 1.611-.361 1.989-.19.5-.419.857-.786 1.232a3.248 3.248 0 0 1-1.208.801c-.37.147-.926.321-1.95.369-1.107.052-1.44.062-4.244.062s-3.136-.01-4.244-.062c-1.024-.048-1.58-.222-1.95-.369a3.248 3.248 0 0 1-1.208-.802 3.328 3.328 0 0 1-.785-1.231c-.144-.378-.315-.945-.362-1.99-.05-1.13-.061-1.469-.061-4.33 0-2.86.01-3.2.061-4.329.047-1.045.218-1.612.362-1.99.19-.5.418-.856.785-1.231a3.249 3.249 0 0 1 1.208-.802c.37-.147.926-.321 1.95-.369 1.108-.051 1.44-.062 4.244-.062Z"/><path d="M12.98 16.289c-1.934 0-3.502-1.6-3.502-3.572s1.568-3.571 3.501-3.571c1.934 0 3.501 1.599 3.501 3.571 0 1.973-1.567 3.572-3.5 3.572Zm0-9.073c-2.98 0-5.394 2.463-5.394 5.501 0 3.04 2.415 5.502 5.393 5.502 2.979 0 5.393-2.463 5.393-5.502 0-3.038-2.414-5.501-5.393-5.501Zm6.866-.218c0 .71-.564 1.286-1.26 1.286-.696 0-1.26-.576-1.26-1.286 0-.71.564-1.286 1.26-1.286.696 0 1.26.576 1.26 1.286Z"/></g></svg>