<svg width="301" height="359" fill="none" xmlns="http://www.w3.org/2000/svg"><g filter="url('#filter0_b_25_768')"><path d="M.318 20.08c0-11.047 8.954-20 20-20h260.494c11.045 0 20 8.953 20 20V339c0 11.046-8.955 20-20 20H20.318c-11.046 0-20-8.954-20-20V20.08Z" fill="url('#paint0_linear_25_768')"/><path d="M1.318 20.08c0-10.494 8.506-19 19-19h260.494c10.493 0 19 8.506 19 19V339c0 10.493-8.507 19-19 19H20.318c-10.494 0-19-8.507-19-19V20.08Z" stroke="#239B0A" stroke-opacity=".3" stroke-width="2"/></g><defs><linearGradient id="paint0_linear_25_768" x1=".318" y1=".079" x2="321.823" y2="301.951" gradientUnits="userSpaceOnUse"><stop stop-color="#239B0A" stop-opacity=".2"/><stop offset="1" stop-color="#EFEFEF" stop-opacity=".01"/></linearGradient><filter id="filter0_b_25_768" x="-3.682" y="-3.921" width="308.494" height="366.921" filterUnits="userSpaceOnUse" color-interpolation-filters="sRGB"><feFlood flood-opacity="0" result="BackgroundImageFix"/><feGaussianBlur in="BackgroundImageFix" stdDeviation="2"/><feComposite in2="SourceAlpha" operator="in" result="effect1_backgroundBlur_25_768"/><feBlend in="SourceGraphic" in2="effect1_backgroundBlur_25_768" result="shape"/></filter></defs></svg>