<svg width="301" height="536" fill="none" xmlns="http://www.w3.org/2000/svg"><g filter="url('#filter0_b_25_695')"><path d="M0 20.356c0-11.046 8.954-20 20-20h260.494c11.046 0 20 8.954 20 20v494.761c0 11.046-8.954 20-20 20H20c-11.046 0-20-8.954-20-20V20.356Z" fill="url('#paint0_linear_25_695')"/><path d="M1 20.356c0-10.494 8.507-19 19-19h260.494c10.493 0 19 8.506 19 19v494.761c0 10.494-8.507 19-19 19H20c-10.493 0-19-8.506-19-19V20.356Z" stroke="#239B0A" stroke-opacity=".3" stroke-width="2"/></g><defs><linearGradient id="paint0_linear_25_695" x1="0" y1=".356" x2="432.986" y2="273.22" gradientUnits="userSpaceOnUse"><stop stop-color="#239B0A" stop-opacity=".2"/><stop offset="1" stop-color="#EFEFEF" stop-opacity=".01"/></linearGradient><filter id="filter0_b_25_695" x="-4" y="-3.644" width="308.494" height="542.761" filterUnits="userSpaceOnUse" color-interpolation-filters="sRGB"><feFlood flood-opacity="0" result="BackgroundImageFix"/><feGaussianBlur in="BackgroundImageFix" stdDeviation="2"/><feComposite in2="SourceAlpha" operator="in" result="effect1_backgroundBlur_25_695"/><feBlend in="SourceGraphic" in2="effect1_backgroundBlur_25_695" result="shape"/></filter></defs></svg>