<svg width="26" height="26" fill="none" xmlns="http://www.w3.org/2000/svg"><path fill-rule="evenodd" clip-rule="evenodd" d="M9.577 1.886c-1.713.783-3.114 1.446-3.114 1.473.001.07 4.11 1.897 4.256 1.892.067-.002.548-.196 1.07-.432l.949-.428 1.036.467 1.037.468 1.697-.67c2.557-1.008 2.823-1.119 2.781-1.156-.055-.05-.972-.482-3.461-1.633a244.728 244.728 0 0 1-2.594-1.21c-.224-.111-.438-.2-.476-.198-.037.001-1.469.644-3.181 1.427ZM2.066 5.301l-1.783.808v3.549c0 1.951.023 3.548.052 3.548.029 0 .906-.334 1.95-.742l1.896-.742v-3.74l.927.444 2.144 1.022 1.218.578.541-.215c.34-.135.679-.271 1.017-.409.262-.107.903-.36 1.426-.564.523-.203 1.007-.408 1.076-.455.091-.062-1.02-.601-4.112-1.995-2.33-1.05-4.312-1.907-4.403-1.903-.092.004-.969.371-1.95.816Zm17.544.227c-1.214.481-2.208.894-2.21.918 0 .023.662.369 1.472.767.81.4 1.472.747 1.472.773 0 .026-.717.33-1.592.677a6626.9 6626.9 0 0 0-4.92 1.951l-6.133 2.434-3.09 1.227c-3.15 1.252-4.017 1.6-4.136 1.66-.12.06-.147.408-.168 2.16L.28 20.182l1.594.713 1.594.713 2.21-.876c1.216-.481 2.211-.9 2.211-.932 0-.03-.225-.159-.499-.285a39.672 39.672 0 0 1-1.26-.622c-.418-.216-.835-.414-.927-.44-.091-.026-.165-.072-.163-.102.001-.03.974-.436 2.163-.902 2.307-.906 4.073-1.604 7.864-3.11l5.087-2.017c1.49-.591 3.223-1.28 3.85-1.533l1.141-.46.026-2.112.025-2.112-1.617-.729c-.889-.4-1.649-.727-1.689-.726-.04.001-1.066.396-2.28.877Zm5.102 7.62c-.238.103-.709.294-1.046.426-.337.131-.976.385-1.42.563l-.809.323-.018 1.855c-.01 1.02-.053 1.85-.095 1.845-.096-.013-1.61-.695-3.133-1.411-1.099-.517-1.168-.538-1.426-.426-.15.065-1.042.417-1.983.781-.941.365-1.742.687-1.78.716-.037.03 1.857.93 4.21 2.004l4.278 1.95 1.828-.83c1.005-.456 1.86-.873 1.899-.925.089-.118.081-7.072-.008-7.063a4.63 4.63 0 0 0-.497.193Zm-10.12 8.163-.95.36c-.957.363-.77.375-1.908-.122-.758-.331-1.085-.434-1.227-.384-.107.037-1.022.399-2.035.804-1.013.405-1.877.736-1.92.736-.425 0 .282.37 3.008 1.578l3.197 1.416 1.345-.583c.74-.321 2.233-.963 3.317-1.427 1.084-.465 1.957-.857 1.941-.872-.016-.014-.925-.424-2.019-.91l-1.988-.883-.761.287Z" fill="#05A3C9"/></svg>