<svg width="21" height="14" viewBox="0 0 21 14" fill="none" xmlns="http://www.w3.org/2000/svg">
<path opacity="0.976" fill-rule="evenodd" clip-rule="evenodd" d="M8.09454 0.141886C11.3254 0.136571 14.5561 0.141886 17.7869 0.157828C19.5654 0.354455 20.5983 1.06124 20.8857 2.2782C20.9313 4.79797 20.9158 7.3169 20.8391 9.83501C20.4428 10.9351 19.4255 11.5675 17.7869 11.7322C17.4767 11.7481 17.166 11.7534 16.8549 11.7481C16.6442 12.6263 15.9452 13.248 14.758 13.6134C14.4439 13.7017 14.1177 13.7548 13.7795 13.7728C10.5487 13.7941 7.3179 13.7941 4.08713 13.7728C2.30846 13.5761 1.27553 12.8693 0.988366 11.6525C0.942817 9.35587 0.958348 7.06013 1.03496 4.76525C1.39356 3.73338 2.33329 3.11162 3.85414 2.89996C4.22659 2.88402 4.59938 2.87873 4.97249 2.88402C4.82593 1.60059 5.6181 0.723741 7.34898 0.253484C7.60084 0.205778 7.84939 0.16858 8.09454 0.141886ZM8.14114 1.54484C11.3409 1.53952 14.5406 1.54484 17.7403 1.56078C18.3228 1.66175 18.6878 1.91152 18.8354 2.31009C18.8664 4.73337 18.8664 7.15665 18.8354 9.57993C18.6878 9.9785 18.3228 10.2283 17.7403 10.3292C17.4611 10.3451 17.1816 10.3505 16.9015 10.3452C16.9093 8.50642 16.9015 6.66772 16.8782 4.82902C16.5288 3.78213 15.589 3.1391 14.0591 2.89996C11.6981 2.88402 9.33722 2.8787 6.97619 2.88402C6.844 2.21331 7.2323 1.76691 8.14114 1.54484ZM4.22692 4.25509C7.36454 4.24976 10.5021 4.25509 13.6397 4.27103C14.3309 4.36136 14.7425 4.64304 14.8745 5.11599C14.9056 7.26292 14.9056 9.40989 14.8745 11.5568C14.7305 11.9848 14.3499 12.2559 13.7329 12.3699C10.5332 12.3912 7.33346 12.3912 4.13372 12.3699C3.55125 12.2689 3.18623 12.0192 3.03867 11.6206C3.00761 9.43112 3.00761 7.24169 3.03867 5.05222C3.21363 4.62958 3.60972 4.36385 4.22692 4.25509Z" fill="#239B0A"></path>
</svg>
