<svg width="31" height="30" viewBox="0 0 31 30" fill="none" xmlns="http://www.w3.org/2000/svg">
<g clip-path="url('#clip0_22_595')">
<path fill-rule="evenodd" clip-rule="evenodd" d="M15.0324 2.22223C16.3575 2.22181 17.6325 2.46034 18.8574 2.93782C19.972 3.40246 20.9521 4.053 21.7974 4.88944C22.033 4.88929 22.258 4.84109 22.4724 4.74487C23.1048 4.4487 23.6223 4.02224 24.0249 3.46548C23.8663 3.94941 23.6463 4.4072 23.3649 4.83884C22.7497 5.75511 22.0273 6.59117 21.1974 7.34702C20.1466 8.30832 19.0017 9.14679 17.7624 9.86244C17.449 10.0351 17.1289 10.1966 16.8024 10.3467C15.7785 9.65324 14.7559 9.65324 13.7349 10.3467C12.9577 9.98565 12.2202 9.564 11.5224 9.08179C10.1942 8.17789 9.0067 7.12016 7.95988 5.90861C7.46217 5.32566 7.04716 4.68958 6.71488 4.00037C6.63253 3.81992 6.56253 3.63682 6.50488 3.45102C6.91158 4.00689 7.42908 4.43818 8.05738 4.74487C8.21605 4.81352 8.38105 4.86171 8.55238 4.88944C8.61738 4.89908 8.68239 4.89908 8.74738 4.88944C10.2336 3.42393 12.0386 2.56138 14.1624 2.30174C14.454 2.26885 14.744 2.24235 15.0324 2.22223Z" fill="#FEFEFE"></path>
<path fill-rule="evenodd" clip-rule="evenodd" d="M11.3573 13.238C11.4955 13.2429 11.6305 13.2574 11.7623 13.2813C11.7014 13.7033 11.6614 14.1273 11.6423 14.5535C10.6743 15.0985 9.70427 15.6406 8.73233 16.1798C9.50491 16.6027 10.2799 17.0219 11.0573 17.4375C11.4566 17.6729 11.7941 17.974 12.0698 18.3411C12.5779 19.0538 12.9979 19.815 13.3298 20.6252C13.7245 21.5878 14.0744 22.566 14.3798 23.5598C14.6702 24.5251 14.9652 25.4889 15.2648 26.4511C15.3428 26.2304 15.4178 26.0087 15.4898 25.7861C15.8911 24.3601 16.3411 22.9482 16.8398 21.5504C17.1782 20.6103 17.6032 19.7092 18.1148 18.847C18.3757 18.4171 18.6982 18.034 19.0823 17.6978C19.2272 17.5943 19.3772 17.4978 19.5323 17.4086C20.2898 17.0027 21.0448 16.5931 21.7973 16.1798C20.8298 15.6341 19.8598 15.092 18.8873 14.5535C18.8774 14.2687 18.86 13.9844 18.8348 13.7006C18.8132 13.5556 18.7907 13.411 18.7673 13.2669C19.4941 13.2629 20.174 13.0918 20.8073 12.7537C21.9799 12.0095 22.4024 10.9758 22.0748 9.65278C21.9737 9.34711 21.8438 9.05317 21.6848 8.77094C21.6748 8.75166 21.6748 8.73238 21.6848 8.71311C22.2205 8.18029 22.708 7.61168 23.1473 7.00725C23.1548 6.99249 23.1649 6.99008 23.1773 7.00003C23.9077 8.23473 24.3101 9.56231 24.3848 10.9828C24.3898 12.0429 24.3949 13.103 24.3998 14.1632C24.3562 16.5719 24.7411 18.9138 25.5548 21.189C25.847 21.9715 26.1946 22.7305 26.5973 23.4659C26.5873 23.4756 26.5774 23.4756 26.5673 23.4659C25.5424 22.6683 24.5173 21.8709 23.4923 21.0733C22.7513 22.2173 22.0138 23.3641 21.2798 24.514C20.5144 23.8099 19.7444 23.1113 18.9698 22.4178C17.7373 24.3405 16.5049 26.2632 15.2723 28.1859C14.0338 26.2661 12.7988 24.3434 11.5673 22.4178C10.8019 23.117 10.0319 23.8109 9.25733 24.4995C8.52004 23.358 7.78255 22.216 7.04483 21.0733C6.01483 21.8732 4.98484 22.6732 3.95483 23.4731C5.00039 21.5076 5.66789 19.4259 5.95733 17.2279C5.97817 17.159 5.98817 17.0867 5.98733 17.0111C6.06238 16.3141 6.10987 15.6155 6.12983 14.9149C6.13483 13.609 6.13984 12.3031 6.14483 10.9972C6.22025 9.56734 6.62774 8.23254 7.36733 6.9928C7.82611 7.60383 8.32612 8.1845 8.86733 8.73479C8.65315 9.10663 8.49565 9.49936 8.39483 9.91299C8.21036 11.3044 8.76787 12.3092 10.0673 12.9272C10.4785 13.1036 10.9085 13.2072 11.3573 13.238Z" fill="#FEFEFE"></path>
<path fill-rule="evenodd" clip-rule="evenodd" d="M10.0072 9.71063C10.9156 10.385 11.8856 10.9729 12.9172 11.4743C12.9325 11.4816 12.935 11.4912 12.9247 11.5032C12.216 11.868 11.4835 11.9186 10.7272 11.655C9.99221 11.3395 9.70972 10.8022 9.87967 10.0431C9.9208 9.9314 9.96329 9.82057 10.0072 9.71063Z" fill="#FDFDFD"></path>
<path fill-rule="evenodd" clip-rule="evenodd" d="M20.5072 9.71063C20.7356 10.085 20.7782 10.4802 20.6347 10.8961C20.4523 11.2695 20.1598 11.5273 19.7572 11.6695C19.0805 11.8968 18.4154 11.8679 17.7622 11.5827C17.7022 11.5587 17.6473 11.5274 17.5972 11.4888C18.6341 10.9896 19.604 10.3969 20.5072 9.71063Z" fill="#FDFDFD"></path>
<path fill-rule="evenodd" clip-rule="evenodd" d="M15.1073 11.2286C15.4181 11.208 15.708 11.273 15.9773 11.4237C16.6764 11.872 17.109 12.496 17.2748 13.2958C17.3934 13.8809 17.4309 14.4712 17.3873 15.0667C17.3942 15.2729 17.4891 15.427 17.6723 15.5293C18.0608 15.7351 18.4458 15.9471 18.8273 16.1654C17.9826 16.6325 17.3052 17.2661 16.7948 18.0664C16.3947 18.7219 16.0697 19.411 15.8198 20.1337C15.6347 20.6786 15.4496 21.2231 15.2648 21.7673C15.0359 21.0537 14.791 20.3453 14.5298 19.6422C14.2321 18.8511 13.8221 18.1235 13.2998 17.4593C12.8538 16.9329 12.3263 16.5017 11.7173 16.1654C12.1029 15.9411 12.4929 15.7242 12.8873 15.5149C13.0156 15.4387 13.0981 15.3303 13.1348 15.1896C13.1398 14.8234 13.1448 14.4572 13.1498 14.0909C13.174 13.477 13.334 12.8988 13.6298 12.3562C13.9075 11.8861 14.3 11.5368 14.8073 11.3081C14.9079 11.2766 15.0079 11.2501 15.1073 11.2286Z" fill="#FEFEFE"></path>
<path fill-rule="evenodd" clip-rule="evenodd" d="M11.3572 13.238C11.4972 13.238 11.6372 13.238 11.7772 13.238C11.7807 13.2566 11.7757 13.2711 11.7622 13.2813C11.6304 13.2574 11.4954 13.2429 11.3572 13.238Z" fill="#737376"></path>
<path fill-rule="evenodd" clip-rule="evenodd" d="M5.98732 17.0111C5.98816 17.0867 5.97816 17.159 5.95732 17.228C5.95648 17.1523 5.96649 17.0801 5.98732 17.0111Z" fill="#AFAFB1"></path>
</g>
<defs>
<clipPath id="clip0_22_595">
<rect width="30" height="28.9128" fill="white" transform="translate(0.279785 0.754883)"></rect>
</clipPath>
</defs>
</svg>
