<svg width="25" height="26" viewBox="0 0 25 26" fill="none" xmlns="http://www.w3.org/2000/svg">
<mask id="mask0_10_501" style="mask-type: luminance" maskUnits="userSpaceOnUse" x="0" y="0" width="25" height="26">
<path d="M24.8841 0.945923H0.37793V25.9459H24.8841V0.945923Z" fill="white"></path>
</mask>
<g mask="url('#mask0_10_501')">
<path d="M12.9792 2.0033C10.1269 2.0033 9.76917 2.01563 8.64894 2.06774C7.53104 2.11977 6.7676 2.30091 6.09954 2.56573C5.40888 2.83952 4.82323 3.20595 4.2393 3.80157C3.65545 4.39718 3.29626 4.99479 3.02796 5.69929C2.7683 6.38081 2.59081 7.15964 2.53973 8.30007C2.48865 9.44288 2.47656 9.80777 2.47656 12.7176C2.47656 15.6274 2.48865 15.9923 2.53973 17.1351C2.59081 18.2755 2.7683 19.0544 3.02796 19.7359C3.29634 20.4404 3.65545 21.0379 4.2393 21.6336C4.82323 22.2292 5.40888 22.5956 6.09954 22.8694C6.7676 23.1343 7.53104 23.3154 8.64894 23.3674C9.76917 23.4195 10.1269 23.4319 12.9792 23.4319C15.8315 23.4319 16.1892 23.4195 17.3094 23.3674C18.4273 23.3154 19.1908 23.1343 19.8588 22.8694C20.5495 22.5956 21.1351 22.2292 21.7191 21.6336C22.3029 21.0379 22.6621 20.4404 22.9305 19.7359C23.1901 19.0544 23.3676 18.2755 23.4186 17.1351C23.4697 15.9923 23.4818 15.6274 23.4818 12.7176C23.4818 9.80777 23.4697 9.44288 23.4186 8.30007C23.3676 7.15964 23.1901 6.38081 22.9305 5.69929C22.6621 4.99479 22.3029 4.39718 21.7191 3.80157C21.1351 3.20595 20.5495 2.83952 19.8588 2.56573C19.1908 2.30091 18.4273 2.11977 17.3094 2.06774C16.1892 2.01563 15.8315 2.0033 12.9792 2.0033ZM12.9792 3.93375C15.7835 3.93375 16.1157 3.9447 17.2231 3.99627C18.2472 4.04386 18.8033 4.21841 19.1733 4.36515C19.6636 4.55955 20.0135 4.79173 20.3809 5.16659C20.7485 5.54152 20.9761 5.89852 21.1666 6.39859C21.3105 6.77612 21.4816 7.34347 21.5282 8.38812C21.5788 9.51789 21.5895 9.85674 21.5895 12.7176C21.5895 15.5784 21.5788 15.9173 21.5282 17.0471C21.4816 18.0917 21.3105 18.659 21.1666 19.0366C20.9761 19.5367 20.7485 19.8936 20.3809 20.2685C20.0135 20.6434 19.6636 20.8756 19.1733 21.07C18.8033 21.2168 18.2471 21.3913 17.2231 21.4389C16.1159 21.4905 15.7837 21.5014 12.9792 21.5014C10.1746 21.5014 9.84256 21.4905 8.73525 21.4389C7.71124 21.3913 7.1551 21.2168 6.78502 21.07C6.29476 20.8756 5.94489 20.6434 5.57744 20.2685C5.20991 19.8936 4.98232 19.5366 4.79176 19.0366C4.64792 18.659 4.47689 18.0917 4.43017 17.0471C4.37962 15.9173 4.36887 15.5784 4.36887 12.7176C4.36887 9.85674 4.37962 9.51789 4.43017 8.38812C4.47689 7.34347 4.64792 6.77612 4.79176 6.39859C4.98232 5.89845 5.20991 5.54152 5.57744 5.16666C5.94489 4.79173 6.29484 4.55955 6.78502 4.36515C7.1551 4.21841 7.71124 4.04386 8.73525 3.99627C9.84271 3.9447 10.1749 3.93375 12.9792 3.93375Z" fill="#239B0A"></path>
<path d="M12.9792 16.2888C11.0457 16.2888 9.47825 14.6899 9.47825 12.7174C9.47825 10.745 11.0457 9.14595 12.9792 9.14595C14.9127 9.14595 16.4801 10.745 16.4801 12.7174C16.4801 14.6899 14.9127 16.2888 12.9792 16.2888ZM12.9792 7.21551C10.0006 7.21551 7.58594 9.67874 7.58594 12.7174C7.58594 15.7561 10.0006 18.2194 12.9792 18.2194C15.9578 18.2194 18.3724 15.7561 18.3724 12.7174C18.3724 9.67874 15.9578 7.21551 12.9792 7.21551ZM19.8458 6.99812C19.8458 7.70821 19.2816 8.28383 18.5855 8.28383C17.8895 8.28383 17.3252 7.70821 17.3252 6.99812C17.3252 6.28802 17.8895 5.7124 18.5855 5.7124C19.2816 5.7124 19.8458 6.28802 19.8458 6.99812Z" fill="#239B0A"></path>
</g>
</svg>
