<svg width="26" height="26" viewBox="0 0 26 26" fill="none" xmlns="http://www.w3.org/2000/svg">
<path fill-rule="evenodd" clip-rule="evenodd" d="M9.5767 1.88595C7.8642 2.66921 6.46314 3.332 6.46344 3.35896C6.4642 3.42853 10.5735 5.25577 10.7193 5.25132C10.7857 5.24937 11.267 5.05484 11.7888 4.8191L12.7378 4.39054L13.7742 4.85828L14.8106 5.32611L16.5078 4.6565C19.0651 3.64751 19.3308 3.53695 19.2891 3.4998C19.2339 3.45051 18.3166 3.01785 15.828 1.86749C14.6252 1.31151 13.4579 0.766391 13.2338 0.656086C13.0097 0.54578 12.7958 0.457047 12.7584 0.458765C12.7211 0.460482 11.2892 1.10272 9.5767 1.88595ZM2.06569 5.30096L0.283001 6.10945V9.65779C0.283001 11.6094 0.30641 13.2061 0.335123 13.2061C0.363737 13.2061 1.24083 12.8723 2.28416 12.4643L4.18115 11.7224V7.98225L5.10814 8.42569C5.82246 8.76708 6.53722 9.10778 7.2524 9.44778L8.46964 10.0264L9.01129 9.81139C9.35098 9.6763 9.69 9.5399 10.0283 9.40219C10.2898 9.29529 10.9315 9.04149 11.4545 8.83809C11.9774 8.63459 12.4614 8.42997 12.5301 8.38333C12.6212 8.32138 11.5094 7.78193 8.41782 6.388C6.08741 5.33726 4.10595 4.4809 4.01457 4.48501C3.92319 4.48911 3.0462 4.85624 2.06569 5.30096ZM19.6104 5.528C18.3963 6.00925 17.402 6.42223 17.4009 6.44578C17.3998 6.46931 18.0616 6.81478 18.8715 7.21338C19.6814 7.61207 20.3441 7.95958 20.3441 7.98575C20.3441 8.01186 19.6274 8.31675 18.7516 8.66341C17.8756 9.00999 15.6616 9.88789 13.8314 10.6143L7.69895 13.0481C6.15634 13.6604 4.76586 14.2123 4.609 14.2747C1.45813 15.5271 0.592086 15.8746 0.473154 15.9342C0.353558 15.9943 0.32647 16.3432 0.305183 18.0943L0.279785 20.183L1.87395 20.8961L3.46808 21.6093L5.67859 20.7334C6.89441 20.2517 7.8891 19.8323 7.8891 19.8014C7.8891 19.7706 7.66444 19.6421 7.38997 19.5156C7.11536 19.3892 6.54852 19.1094 6.13018 18.8937C5.71188 18.678 5.29477 18.48 5.2032 18.4538C5.11165 18.4276 5.03807 18.3818 5.03957 18.3519C5.04109 18.3221 6.0145 17.9162 7.20257 17.4497C9.51016 16.5438 11.2761 15.8457 15.0674 14.3403C16.7627 13.6673 18.4582 12.9947 20.1539 12.3226C21.6442 11.7319 23.377 11.0421 24.0045 10.7897L25.1454 10.3307L25.1708 8.21826L25.1963 6.10596L23.5794 5.37729C22.6901 4.97656 21.93 4.64966 21.8901 4.65086C21.8503 4.65196 20.8244 5.04663 19.6104 5.528ZM24.7123 13.1487C24.474 13.2509 24.0034 13.4422 23.6664 13.5738C23.3295 13.7054 22.6901 13.9587 22.2456 14.1368L21.4374 14.4604L21.419 16.3149C21.4088 17.3349 21.3661 18.1649 21.324 18.1595C21.2283 18.147 19.7136 17.4649 18.1911 16.7486C17.0922 16.2317 17.0232 16.2111 16.7649 16.3234C16.6157 16.3884 15.7234 16.7397 14.7821 17.1043C13.8409 17.4689 13.0401 17.791 13.0024 17.8202C12.9648 17.8493 14.8592 18.7508 17.2123 19.8236L21.4904 21.7742L23.318 20.9441C24.323 20.4877 25.1777 20.0713 25.217 20.0189C25.3056 19.9012 25.298 12.9467 25.2093 12.9561C25.1743 12.9598 24.9505 13.0465 24.7123 13.1487ZM14.592 21.3114C14.275 21.4311 13.9581 21.5509 13.6412 21.6709C12.6845 22.0344 12.872 22.0464 11.7337 21.5489C10.9756 21.2175 10.6488 21.1153 10.5069 21.1649C10.4005 21.2021 9.48486 21.5639 8.47193 21.9687C7.45906 22.3736 6.5952 22.7048 6.55223 22.7048C6.12727 22.7048 6.83377 23.0754 9.55999 24.2829L12.7572 25.6988L14.1024 25.1157C14.8423 24.795 16.3346 24.1527 17.4188 23.6885C18.5028 23.2242 19.3764 22.8322 19.3601 22.8174C19.3436 22.8027 18.4352 22.3932 17.3414 21.9073L15.3526 21.0241L14.592 21.3114Z" fill="#05A3C9"></path>
</svg>
