<svg width="29" height="23" viewBox="0 0 29 23" fill="none" xmlns="http://www.w3.org/2000/svg">
<path d="M26.0396 0.640144C26.0396 0.640144 28.5836 -0.312138 28.3716 2.00056C28.3009 2.95288 27.6648 6.28582 27.1702 9.89101L25.4743 20.5702C25.4743 20.5702 25.333 22.1347 24.061 22.4067C22.7889 22.6788 20.881 21.4545 20.5277 21.1824C20.245 20.9783 15.2278 17.9174 13.4611 16.4209C12.9664 16.0128 12.4011 15.1966 13.5317 14.2443L20.9517 7.44229C21.7996 6.62595 22.6476 4.72143 19.1143 7.03407L9.2212 13.4961C9.2212 13.4961 8.09055 14.1763 5.97062 13.5641L1.37735 12.2037C1.37735 12.2037 -0.318629 11.1834 2.57865 10.1631C9.64522 6.96609 18.337 3.70103 26.0396 0.640144Z" fill="#239B0A"></path>
</svg>
